# Max2Obj Version 4.0 Mar 10th, 2001
#
# object scout to come ...
#
v  2.045962 -6.422527 -93.406021
v  3.776933 -8.722107 -77.430069
v  5.521472 -10.643251 -59.062851
v  6.981063 -10.643250 -40.337238
v  3.880040 -2.605725 -94.635330
v  6.971620 -2.605725 -77.542557
v  8.332094 -2.605726 -59.080681
v  9.567490 -4.594763 -40.337223
v  1.941070 1.230269 -96.546600
v  3.274286 10.563995 -80.075737
v  3.863581 13.587374 -57.365955
v  3.627812 7.834150 -40.187592
v  -0.000572 -10.643249 -59.062840
v  -0.000572 -10.643248 -40.337208
v  -0.000571 7.834153 -40.187553
v  -0.000569 13.587373 -57.365944
v  5.745929 -3.468934 35.808113
v  -0.000569 -3.468916 35.808136
v  -0.000571 5.923264 35.734154
v  9.567494 -4.589180 -31.385660
v  7.342048 -14.515564 -31.384991
v  -0.000569 -14.515558 -31.384947
v  -0.000571 8.133253 -31.238087
v  8.332128 8.133264 -31.238131
v  9.567493 -4.822283 26.007048
v  5.333382 -14.311579 26.008076
v  -0.000572 -14.311570 26.008101
v  -0.000573 6.949951 26.153555
v  6.176621 6.981360 26.153542
v  -0.000571 1.668693 78.346458
v  16.496513 5.897653 -40.155449
v  16.502693 -2.394187 -40.304939
v  16.133038 -2.388617 -31.361023
v  10.955163 -2.621728 25.982710
v  15.308559 6.047537 -26.635626
v  6.615475 5.573558 -61.448452
v  8.416063 -4.866321 -61.598099
v  14.278624 -2.789116 -58.072685
v  14.272131 3.969332 -57.923195
v  16.130003 3.247807 -31.287312
v  10.952157 2.462304 26.055901
v  63.387142 -0.804226 31.838572
v  66.524117 -1.397210 18.563967
v  63.390060 -1.380025 33.885738
v  5.349338 5.923296 35.734142
v  1.534658 0.506036 74.281746
v  1.429745 2.990621 74.262177
v  2.090920 1.732574 74.272079
v  3.640293 -1.481449 55.044933
v  -0.000570 -1.481438 55.044933
v  -0.000571 4.456938 54.998158
v  3.389541 4.456960 54.998169
v  25.916615 15.145099 77.944054
v  25.586027 15.536427 77.939102
v  25.796036 14.994460 69.449577
v  18.478554 3.650908 20.896389
v  28.275595 4.683592 -6.370690
v  29.095671 2.165330 -10.624091
v  20.119732 1.486809 24.001556
v  5.698490 -4.331547 35.025589
v  -0.000569 -4.331530 35.025612
v  5.402752 -13.222161 27.051500
v  -0.000571 -13.222153 27.051531
v  0.165170 -4.772672 36.172634
v  5.698484 -4.772690 36.172611
v  5.402759 -12.575237 34.915157
v  0.165106 -12.575225 34.915169
v  -2.047098 -6.422523 -93.406006
v  -3.778075 -8.722103 -77.430069
v  -5.522609 -10.643250 -59.062840
v  -6.982197 -10.643250 -40.337223
v  -3.881181 -2.605727 -94.635330
v  -6.972757 -2.605726 -77.542557
v  -8.333232 -2.605728 -59.080669
v  -9.568628 -4.594763 -40.337223
v  -1.942208 1.230269 -96.546585
v  -3.275424 10.563998 -80.075737
v  -3.864719 13.587373 -57.365944
v  -3.628954 7.834152 -40.187576
v  -0.000568 -6.422523 -93.406006
v  -0.000572 -8.722101 -77.430069
v  -0.000570 10.564005 -80.075737
v  -0.000570 1.230271 -96.546577
v  -5.747071 -3.468933 35.808117
v  -5.350482 5.923296 35.734146
v  -9.568630 -4.589179 -31.385672
v  -7.343181 -14.515567 -31.384972
v  -8.333264 8.133264 -31.238111
v  -9.568636 -4.822283 26.007046
v  -5.334521 -14.311584 26.008081
v  -16.497648 5.897653 -40.155457
v  -16.503832 -2.394186 -40.304947
v  -16.134176 -2.388617 -31.361029
v  -10.956304 -2.621728 25.982708
v  -6.177763 6.981363 26.153551
v  -15.309707 6.047537 -26.635624
v  -6.616609 5.573559 -61.448441
v  -8.417204 -4.866321 -61.598087
v  -14.279770 -2.789115 -58.072659
v  -14.273274 3.969330 -57.923157
v  -16.131144 3.247807 -31.287323
v  -10.953298 2.462303 26.055899
v  -63.388283 -0.804226 31.838566
v  -66.522308 -0.642431 20.016966
v  -63.391205 -1.380024 33.885742
v  -1.535797 0.506036 74.281746
v  -0.000570 0.506040 74.281731
v  -0.000569 2.990613 74.262161
v  -2.092059 1.732575 74.272079
v  -3.641434 -1.481449 55.044933
v  -3.390685 4.456958 54.998169
v  -1.430884 2.990621 74.262177
v  -25.917755 15.145101 77.944008
v  -25.587168 15.536423 77.939064
v  -25.797190 14.994461 69.449539
v  -18.479692 3.650907 20.896397
v  -28.276747 4.683591 -6.370685
v  -29.096809 2.165331 -10.624092
v  -20.120874 1.486810 24.001558
v  -5.699625 -4.331545 35.025597
v  -5.403890 -13.222166 27.051500
v  -0.126755 -4.772671 36.172634
v  -5.699625 -4.772689 36.172615
v  -5.403896 -12.575239 34.915161
v  -0.126704 -12.575227 34.915169
# 125 vertices

vt  0.568343 0.261470 0.000000
vt  0.558432 0.328529 0.000000
vt  0.548447 0.405624 0.000000
vt  0.540095 0.484222 0.000000
vt  0.553306 0.256319 0.000000
vt  0.530880 0.328071 0.000000
vt  0.521022 0.405564 0.000000
vt  0.512072 0.484237 0.000000
vt  0.580109 0.405607 0.000000
vt  0.392863 0.682792 0.000000
vt  0.283127 0.687899 0.000000
vt  0.580127 0.484200 0.000000
vt  0.539883 0.803814 0.000000
vt  0.512080 0.521808 0.000000
vt  0.538033 0.521797 0.000000
vt  0.580135 0.521774 0.000000
vt  0.512134 0.762692 0.000000
vt  0.549604 0.762676 0.000000
vt  0.580188 0.762660 0.000000
vt  0.405854 0.877598 0.000000
vt  0.300022 0.887839 0.000000
vt  0.154113 0.892209 0.000000
vt  0.038173 0.890195 0.000000
vt  0.038203 0.861872 0.000000
vt  0.154146 0.862046 0.000000
vt  0.239054 0.595841 0.000000
vt  0.250383 0.595825 0.000000
vt  0.408099 0.571386 0.000000
vt  0.430709 0.614897 0.000000
vt  0.406806 0.658626 0.000000
vt  0.357642 0.571386 0.000000
vt  0.335032 0.614897 0.000000
vt  0.358935 0.658626 0.000000
vt  0.725024 0.057986 0.000000
vt  0.816745 0.057989 0.000000
vt  0.250033 0.370163 0.000000
vt  0.164602 0.693416 0.000000
vt  0.555903 0.072302 0.000000
vt  0.043779 0.683502 0.000000
vt  0.461731 0.484399 0.000000
vt  0.464422 0.521937 0.000000
vt  0.250342 0.569403 0.000000
vt  0.717732 0.057627 0.000000
vt  0.481060 0.762607 0.000000
vt  0.520410 0.394998 0.000000
vt  0.224324 0.569439 0.000000
vt  0.250077 0.399961 0.000000
vt  0.817308 0.374946 0.000000
vt  0.477858 0.409817 0.000000
vt  0.707031 0.492188 0.000000
vt  0.481088 0.762914 0.000000
vt  0.509483 0.803677 0.000000
vt  0.219706 0.411071 0.000000
vt  0.540226 0.800529 0.000000
vt  0.405138 0.217953 0.000000
vt  0.549207 0.767056 0.000000
vt  0.580189 0.767039 0.000000
vt  0.404734 0.348214 0.000000
vt  0.276521 0.216524 0.000000
vt  0.280799 0.033741 0.000000
vt  0.875984 0.788002 0.000000
vt  0.591812 0.261458 0.000000
vt  0.792649 0.344625 0.000000
vt  0.758829 0.201126 0.000000
vt  0.249837 0.245867 0.000000
vt  0.601752 0.328506 0.000000
vt  0.657651 0.829810 0.000000
vt  0.817308 0.201126 0.000000
vt  0.908466 0.057990 0.000000
vt  0.198872 0.595802 0.000000
vt  0.655118 0.968785 0.000000
vt  0.382870 0.571386 0.000000
vt  0.382870 0.658626 0.000000
vt  0.820796 0.831159 0.000000
vt  0.816357 0.894443 0.000000
vt  0.202519 0.555881 0.000000
vt  0.455756 0.077304 0.000000
vt  0.451302 0.027837 0.000000
vt  0.611772 0.405590 0.000000
vt  0.620159 0.484179 0.000000
vt  0.609643 0.256289 0.000000
vt  0.632100 0.328017 0.000000
vt  0.760963 0.500733 0.000000
vt  0.759399 0.414355 0.000000
vt  0.641993 0.405499 0.000000
vt  0.650977 0.484163 0.000000
vt  0.580078 0.261464 0.000000
vt  0.580092 0.328517 0.000000
vt  0.623308 0.803769 0.000000
vt  0.650986 0.521733 0.000000
vt  0.622237 0.521752 0.000000
vt  0.651039 0.762618 0.000000
vt  0.610772 0.762644 0.000000
vt  0.725792 0.022115 0.000000
vt  0.816183 0.022119 0.000000
vt  0.701319 0.484271 0.000000
vt  0.698644 0.521811 0.000000
vt  0.681476 0.762499 0.000000
vt  0.642600 0.394933 0.000000
vt  0.685158 0.409706 0.000000
vt  0.707031 0.492188 0.000000
vt  0.681448 0.762807 0.000000
vt  0.224202 0.658632 0.000000
vt  0.205900 0.648250 0.000000
vt  0.199976 0.569618 0.000000
vt  0.215879 0.400296 0.000000
vt  0.052129 0.383452 0.000000
vt  0.042398 0.418368 0.000000
vt  0.052111 0.377408 0.000000
vt  0.841384 0.502485 0.000000
vt  0.915468 0.501285 0.000000
vt  0.245389 0.257931 0.000000
vt  0.249050 0.314949 0.000000
vt  0.227137 0.314815 0.000000
vt  0.841966 0.344625 0.000000
vt  0.817308 0.344625 0.000000
vt  0.192402 0.415562 0.000000
vt  0.324813 0.321398 0.000000
vt  0.653072 0.803600 0.000000
vt  0.906575 0.022124 0.000000
vt  0.841713 0.657267 0.000000
vt  0.839189 0.522468 0.000000
vt  0.161938 0.496108 0.000000
vt  0.405886 0.847286 0.000000
vt  0.875786 0.201126 0.000000
vt  0.919214 0.057627 0.000000
vt  0.622963 0.800485 0.000000
vt  0.611171 0.767023 0.000000
vt  0.300077 0.836713 0.000000
vt  0.154178 0.831883 0.000000
vt  0.643292 0.058647 0.000000
vt  0.255084 0.245573 0.000000
vt  0.579483 0.073384 0.000000
vt  0.580432 0.052512 0.000000
vt  0.556935 0.040738 0.000000
vt  0.038233 0.833550 0.000000
vt  0.578690 0.114882 0.000000
vt  0.324817 0.237056 0.000000
vt  0.559474 0.113935 0.000000
vt  0.564400 0.051841 0.000000
vt  0.909604 0.398134 0.000000
vt  0.677017 0.345533 0.000000
vt  0.657324 0.345802 0.000000
vt  0.697374 0.201580 0.000000
vt  0.646679 0.828650 0.000000
vt  0.647279 0.968491 0.000000
vt  0.300049 0.862276 0.000000
vt  0.650308 0.202225 0.000000
vt  0.487102 0.832893 0.000000
vt  0.491221 0.895456 0.000000
vt  0.159397 0.508669 0.000000
vt  0.405870 0.862442 0.000000
vt  0.993650 0.058711 0.000000
vt  0.187264 0.406402 0.000000
vt  0.958783 0.345567 0.000000
vt  0.978474 0.345854 0.000000
vt  0.261712 0.595809 0.000000
vt  0.277317 0.370140 0.000000
vt  0.276360 0.569367 0.000000
vt  0.236464 0.215662 0.000000
vt  0.230525 0.032924 0.000000
vt  0.938998 0.201597 0.000000
vt  0.986062 0.202282 0.000000
vt  0.839465 0.399270 0.000000
vt  0.952786 0.754155 0.000000
vt  0.301893 0.595658 0.000000
vt  0.277552 0.410365 0.000000
vt  0.836962 0.498460 0.000000
vt  0.835440 0.414414 0.000000
vt  0.855724 0.661977 0.000000
vt  0.906114 0.586094 0.000000
vt  0.654510 0.808928 0.000000
vt  0.764909 0.653853 0.000000
vt  0.762385 0.519054 0.000000
vt  0.298122 0.555748 0.000000
vt  0.276760 0.658559 0.000000
vt  0.295030 0.648125 0.000000
vt  0.300708 0.569478 0.000000
vt  0.284276 0.400201 0.000000
vt  0.447973 0.382900 0.000000
vt  0.457829 0.422078 0.000000
vt  0.447972 0.376856 0.000000
vt  0.249855 0.257925 0.000000
vt  0.254321 0.257919 0.000000
vt  0.270963 0.315084 0.000000
vt  0.307801 0.415401 0.000000
vt  0.338516 0.495861 0.000000
vt  0.341097 0.508415 0.000000
vt  0.312911 0.406226 0.000000
vt  0.243906 0.245767 0.000000
vt  0.221378 0.370309 0.000000
vt  0.778920 0.658563 0.000000
vt  0.829310 0.582680 0.000000
vt  0.914317 0.755024 0.000000
vt  0.483588 0.811940 0.000000
vt  0.881884 0.798017 0.000000
vt  0.645168 0.976862 0.000000
vt  0.918988 0.795965 0.000000
vt  0.815161 0.789968 0.000000
vt  0.882357 0.791983 0.000000
vt  0.815161 0.792029 0.000000
vt  0.055971 0.078032 0.000000
vt  0.059976 0.028529 0.000000
vt  0.186954 0.155551 0.000000
vt  0.202050 0.042945 0.000000
vt  0.710938 0.761719 0.000000
vt  0.750000 0.492188 0.000000
vt  0.746094 0.765625 0.000000
vt  0.710938 0.765625 0.000000
vt  0.750000 0.492188 0.000000
vt  0.746094 0.765625 0.000000
vt  0.245436 0.257920 0.000000
vt  0.241595 0.257139 0.000000
vt  0.325483 0.155977 0.000000
vt  0.309364 0.043510 0.000000
vt  0.258166 0.257171 0.000000
vt  0.256242 0.257546 0.000000
vt  0.406076 0.712142 0.000000
vt  0.302629 0.789867 0.000000
vt  0.156956 0.822714 0.000000
vt  0.045256 0.782972 0.000000
vt  0.823652 0.788998 0.000000
vt  0.881761 0.797113 0.000000
vt  0.823652 0.793000 0.000000
vt  0.952853 0.753249 0.000000
vt  0.239352 0.255501 0.000000
vt  0.259097 0.255771 0.000000
vt  0.405138 0.217953 0.000000
vt  0.404734 0.348214 0.000000
vt  0.324813 0.321398 0.000000
vt  0.324817 0.237056 0.000000
vt  0.392863 0.682792 0.000000
vt  0.283127 0.687899 0.000000
vt  0.283127 0.687899 0.000000
vt  0.283127 0.687899 0.000000
vt  0.164602 0.693416 0.000000
vt  0.164602 0.693416 0.000000
vt  0.164602 0.693416 0.000000
vt  0.043779 0.683502 0.000000
vt  0.406076 0.712142 0.000000
vt  0.302629 0.789867 0.000000
vt  0.302629 0.789867 0.000000
vt  0.302629 0.789867 0.000000
vt  0.156956 0.822714 0.000000
vt  0.156956 0.822714 0.000000
vt  0.156956 0.822714 0.000000
vt  0.045256 0.782972 0.000000
vt  0.580583 0.072057 0.000000
vt  0.557564 0.073080 0.000000
vt  0.556691 0.052009 0.000000
vt  0.579657 0.040194 0.000000
vt  0.558232 0.114970 0.000000
vt  0.576992 0.114071 0.000000
vt  0.572341 0.051379 0.000000
# 254 texture vertices

vn  1.371490 -1.508761 -0.362329
vn  2.119990 -1.762378 -0.386838
vn  2.197834 -1.607749 -0.311254
vn  0.721623 -1.095421 -0.056248
vn  1.400810 -0.312102 -1.002321
vn  0.778876 -0.030753 -0.107377
vn  0.785594 -0.022637 -0.038128
vn  2.879082 -0.530824 -0.302794
vn  1.465581 1.161320 -0.679653
vn  1.507371 1.162963 -0.312756
vn  2.270442 1.364948 0.224991
vn  1.466693 1.286103 0.316693
vn  -0.000000 -0.786370 -0.027318
vn  0.000001 -2.295867 -0.312380
vn  0.000002 3.770853 0.973241
vn  0.000000 0.786712 0.014399
vn  0.632405 -0.341108 0.320675
vn  0.000000 -0.702060 0.355296
vn  0.000000 0.783920 0.067767
vn  0.603915 -0.504376 0.003958
vn  0.464048 -0.624391 -0.117978
vn  -0.000000 -0.770790 -0.158132
vn  0.000000 0.786827 -0.005141
vn  0.110315 0.778967 -0.012843
vn  0.696834 -0.321515 0.173706
vn  0.342654 -0.614109 0.352961
vn  0.000000 -0.759462 0.205771
vn  0.000000 0.784391 0.062084
vn  0.204180 0.747550 0.136395
vn  -0.000000 0.023692 0.786487
vn  0.651564 0.440376 -0.025626
vn  0.694492 -0.367608 -0.040859
vn  0.636506 -0.461320 0.034160
vn  0.721087 -0.245986 0.196591
vn  0.377184 0.688212 -0.056749
vn  0.332049 0.526058 -0.481799
vn  0.431361 -0.281438 -0.594848
vn  0.558621 -0.487953 -0.262616
vn  0.581428 0.362602 -0.386761
vn  0.762856 -0.192291 -0.014070
vn  0.639278 0.213126 0.406232
vn  0.226487 0.746246 0.104614
vn  0.525475 0.575044 -0.111016
vn  0.393824 0.226178 0.642549
vn  0.505889 0.559772 0.223282
vn  0.457120 -0.617881 0.168484
vn  0.037129 0.716779 0.322447
vn  0.532902 -0.257399 0.518541
vn  0.440192 -0.642059 0.114518
vn  0.000000 -0.782678 0.080864
vn  -0.000000 0.784574 0.059720
vn  0.644429 0.446334 0.067973
vn  0.570248 -0.435809 0.322507
vn  -0.082760 0.603343 0.498248
vn  0.605081 0.499261 -0.061149
vn  0.118593 0.727989 0.274028
vn  0.208043 0.751743 -0.103555
vn  0.567529 -0.283385 -0.465540
vn  -0.042550 -0.630554 0.468737
vn  0.600271 -0.355139 0.364245
vn  0.000000 -0.528669 0.582780
vn  0.453530 -0.583118 0.270938
vn  0.000000 -0.662339 0.424772
vn  0.000002 -0.125193 0.776821
vn  0.558176 -0.108795 0.543807
vn  0.494792 -0.343226 0.506459
vn  -0.000000 -0.693831 0.371110
vn  0.000000 -1.020043 -0.861058
vn  -0.687409 -2.701581 -0.432557
vn  -0.737010 -2.609933 -0.260691
vn  0.000001 -2.295867 -0.312380
vn  -0.684083 -1.794045 -3.779133
vn  -0.778876 -0.030754 -0.107377
vn  -0.785594 -0.022637 -0.038128
vn  -2.879081 -0.530825 -0.302794
vn  0.000005 1.018236 -1.480132
vn  -0.748861 2.423553 -0.757692
vn  -0.755066 2.486440 0.340283
vn  -0.000001 1.532517 0.223598
vn  -0.000003 -3.356495 -1.197367
vn  -0.000000 -0.781453 -0.091953
vn  -0.000000 0.728199 -0.298077
vn  0.000002 1.018235 -1.480132
vn  -0.632405 -0.341109 0.320675
vn  -0.505890 0.559772 0.223282
vn  -0.603915 -0.504376 0.003958
vn  -0.464048 -0.624391 -0.117978
vn  -0.110315 0.778967 -0.012843
vn  -0.696834 -0.321516 0.173706
vn  -0.342653 -0.614109 0.352962
vn  -0.651564 0.440376 -0.025626
vn  -0.694492 -0.367608 -0.040859
vn  -0.636506 -0.461321 0.034160
vn  -0.721087 -0.245986 0.196591
vn  -0.204180 0.747549 0.136396
vn  -0.377184 0.688211 -0.056750
vn  -0.332049 0.526058 -0.481798
vn  -0.431362 -0.281437 -0.594847
vn  -0.558622 -0.487953 -0.262616
vn  -0.581428 0.362603 -0.386761
vn  -0.762856 -0.192291 -0.014071
vn  -0.639278 0.213126 0.406232
vn  -0.189684 0.754326 0.118894
vn  -0.479800 0.616355 -0.094984
vn  -0.362293 0.296676 0.632337
vn  -0.457120 -0.617881 0.168484
vn  -0.000000 -0.772569 0.149200
vn  0.000000 0.772008 0.152074
vn  -0.532902 -0.257399 0.518541
vn  -0.440192 -0.642060 0.114518
vn  -0.644429 0.446334 0.067973
vn  -0.037130 0.716779 0.322447
vn  -0.570248 -0.435808 0.322508
vn  0.082760 0.603344 0.498247
vn  -0.605077 0.499265 -0.061147
vn  -0.118593 0.727989 0.274028
vn  -0.199953 0.754957 -0.095822
vn  -0.570530 -0.274529 -0.467175
vn  0.042551 -0.630554 0.468738
vn  -0.600271 -0.355140 0.364244
vn  -0.453530 -0.583117 0.270939
vn  -0.000001 -0.125193 0.776821
vn  -0.558177 -0.108795 0.543806
vn  -0.494792 -0.343226 0.506459
vn  0.000001 -0.693830 0.371110
# 125 vertex normals

g scout
s 1
f 1/1/1 5/5/5 6/6/6
f 6/6/6 2/2/2 1/1/1
f 2/2/2 6/6/6 7/7/7
f 7/7/7 3/3/3 2/2/2
f 3/3/3 7/7/7 8/8/8
f 8/8/8 4/4/4 3/3/3
f 6/11/6 5/10/5 9/218/9
f 9/218/9 10/219/10 6/11/6
f 6/233/6 10/241/10 11/220/11
f 11/220/11 7/37/7 6/233/6
f 7/236/7 11/244/11 12/221/12
f 12/221/12 8/39/8 7/236/7
f 69/66/69 68/62/68 80/87/80
f 81/88/81 69/66/69 80/87/80
f 2/2/2 81/88/81 80/87/80
f 1/1/1 2/2/2 80/87/80
f 70/79/70 69/66/69 81/88/81
f 13/9/13 70/79/70 81/88/81
f 3/3/3 13/9/13 81/88/81
f 2/2/2 3/3/3 81/88/81
f 71/80/71 70/79/70 13/9/13
f 14/12/14 71/80/71 13/9/13
f 4/4/4 14/12/14 13/9/13
f 3/3/3 4/4/4 13/9/13
f 78/130/78 79/136/79 15/24/15
f 16/25/16 78/130/78 15/24/15
f 11/22/11 16/25/16 15/24/15
f 12/23/12 11/22/11 15/24/15
f 77/129/77 78/130/78 16/25/16
f 82/147/82 77/129/77 16/25/16
f 10/21/10 82/147/82 16/25/16
f 11/22/11 10/21/10 16/25/16
f 76/124/76 77/129/77 82/147/82
f 83/152/83 76/124/76 82/147/82
f 9/20/9 83/152/83 82/147/82
f 10/21/10 9/20/9 82/147/82
f 72/32/72 76/33/76 83/73/83
f 80/72/80 68/31/68 72/32/72
f 1/28/1 80/72/80 72/32/72
f 5/29/5 1/28/1 72/32/72
f 5/29/5 72/32/72 83/73/83
f 9/30/9 5/29/5 83/73/83
f 21/15/21 4/4/4 8/8/8
f 8/8/8 20/14/20 21/15/21
f 87/91/87 71/80/71 14/12/14
f 22/16/22 87/91/87 14/12/14
f 21/15/21 22/16/22 14/12/14
f 4/4/4 21/15/21 14/12/14
f 23/42/23 24/46/24 12/26/12
f 79/157/79 88/159/88 23/42/23
f 15/27/15 79/157/79 23/42/23
f 15/27/15 23/42/23 12/26/12
f 33/250/33 32/249/32 31/248/31
f 40/254/40 33/250/33 31/248/31
f 35/251/35 40/254/40 31/248/31
f 25/17/25 26/18/26 21/15/21
f 21/15/21 20/14/20 25/17/25
f 21/15/21 26/18/26 27/19/27
f 22/16/22 21/15/21 27/19/27
f 87/91/87 22/16/22 27/19/27
f 90/93/90 87/91/87 27/19/27
f 23/42/23 88/159/88 95/167/95
f 23/42/23 95/167/95 28/47/28
f 23/42/23 28/47/28 29/53/29
f 24/46/24 23/42/23 29/53/29
f 34/206/34 33/50/33 40/207/40
f 40/207/40 41/208/41 34/206/34
f 25/17/25 17/13/17 60/54/60
f 62/56/62 26/18/26 25/17/25
f 62/56/62 25/17/25 60/54/60
f 26/18/26 62/56/62 63/57/63
f 27/19/27 26/18/26 63/57/63
f 90/93/90 27/19/27 63/57/63
f 121/128/121 90/93/90 63/57/63
f 28/47/28 95/167/95 85/158/85
f 28/47/28 85/158/85 19/36/19
f 28/47/28 19/36/19 45/191/45
f 29/53/29 28/47/28 45/191/45
f 45/191/45 41/106/41 29/53/29
f 110/125/110 84/69/84 18/35/18
f 50/68/50 110/125/110 18/35/18
f 49/64/49 50/68/50 18/35/18
f 17/34/17 49/64/49 18/35/18
f 52/114/52 45/191/45 19/36/19
f 51/113/51 52/114/52 19/36/19
f 111/185/111 51/113/51 19/36/19
f 85/158/85 111/185/111 19/36/19
f 37/58/37 36/55/36 39/138/39
f 39/138/39 38/118/38 37/58/37
f 8/8/8 32/40/32 33/41/33
f 33/41/33 20/14/20 8/8/8
f 20/14/20 33/41/33 34/44/34
f 34/44/34 25/17/25 20/14/20
f 34/44/34 41/51/41 45/52/45
f 34/44/34 45/52/45 17/13/17
f 34/44/34 17/13/17 25/17/25
f 35/76/35 24/46/24 29/53/29
f 31/70/31 12/26/12 24/46/24
f 24/46/24 35/76/35 31/70/31
f 38/49/38 32/40/32 8/8/8
f 8/8/8 37/45/37 38/49/38
f 32/249/32 38/252/38 39/253/39
f 39/253/39 31/248/31 32/249/32
f 39/104/39 36/103/36 12/26/12
f 12/26/12 31/70/31 39/104/39
f 43/61/43 42/222/42 44/199/44
f 35/76/35 29/53/29 56/117/56
f 56/117/56 57/123/57 35/76/35
f 35/76/35 57/123/57 58/151/58
f 58/151/58 40/105/40 35/76/35
f 59/215/59 41/60/41 40/59/40
f 40/59/40 58/214/58 59/215/59
f 41/106/41 59/154/59 56/117/56
f 56/117/56 29/53/29 41/106/41
f 17/43/17 45/131/45 52/148/52
f 52/148/52 49/144/49 17/43/17
f 30/48/30 106/115/106 107/116/107
f 107/116/107 46/63/46 30/48/30
f 108/183/108 112/184/112 30/65/30
f 30/65/30 47/112/47 108/183/108
f 30/190/30 46/226/46 48/213/48
f 48/213/48 47/212/47 30/190/30
f 106/115/106 110/125/110 50/68/50
f 107/116/107 106/115/106 50/68/50
f 46/63/46 107/116/107 50/68/50
f 49/64/49 46/63/46 50/68/50
f 51/113/51 111/185/111 112/184/112
f 51/113/51 112/184/112 108/183/108
f 51/113/51 108/183/108 47/112/47
f 52/114/52 51/113/51 47/112/47
f 55/198/55 54/223/54 53/196/53
f 46/142/46 49/144/49 52/148/52
f 52/148/52 48/143/48 46/142/46
f 48/67/48 53/74/53 54/74/54
f 54/74/54 47/172/47 48/67/48
f 52/71/52 47/67/47 54/74/54
f 54/74/54 55/75/55 52/71/52
f 52/71/52 55/75/55 53/74/53
f 53/74/53 48/67/48 52/71/52
f 42/107/42 43/108/43 57/123/57
f 57/123/57 56/117/56 42/107/42
f 58/151/58 57/123/57 43/108/43
f 44/78/44 59/215/59 58/214/58
f 58/214/58 43/77/43 44/78/44
f 44/109/44 42/107/42 56/117/56
f 56/117/56 59/154/59 44/109/44
f 60/94/60 17/34/17 18/35/18
f 61/95/61 60/94/60 18/35/18
f 120/120/120 61/95/61 18/35/18
f 84/69/84 120/120/120 18/35/18
f 64/110/64 67/164/67 66/141/66
f 66/141/66 65/111/65 64/110/64
f 60/173/60 65/192/65 66/193/66
f 66/193/66 62/174/62 60/173/60
f 62/83/62 66/168/66 67/169/67
f 67/169/67 63/84/63 62/83/62
f 68/62/68 69/66/69 73/82/73
f 73/82/73 72/81/72 68/62/68
f 69/66/69 70/79/70 74/85/74
f 74/85/74 73/82/73 69/66/69
f 70/79/70 71/80/71 75/86/75
f 75/86/75 74/85/74 70/79/70
f 76/240/76 72/232/72 73/234/73
f 73/234/73 77/242/77 76/240/76
f 73/235/73 74/237/74 78/245/78
f 78/245/78 77/243/77 73/235/73
f 74/238/74 75/239/75 79/247/79
f 79/247/79 78/246/78 74/238/74
f 75/86/75 71/80/71 87/91/87
f 87/91/87 86/90/86 75/86/75
f 101/140/101 96/135/96 91/38/91
f 93/134/93 101/140/101 91/38/91
f 92/133/92 93/134/93 91/38/91
f 87/91/87 90/93/90 89/92/89
f 89/92/89 86/90/86 87/91/87
f 94/209/94 102/211/102 101/210/101
f 101/210/101 93/101/93 94/209/94
f 120/127/120 84/89/84 89/92/89
f 121/128/121 120/127/120 89/92/89
f 90/93/90 121/128/121 89/92/89
f 102/179/102 85/158/85 95/167/95
f 100/231/100 97/228/97 98/229/98
f 98/229/98 99/230/99 100/231/100
f 75/86/75 86/90/86 93/97/93
f 93/97/93 92/96/92 75/86/75
f 86/90/86 89/92/89 94/98/94
f 94/98/94 93/97/93 86/90/86
f 85/119/85 102/102/102 94/98/94
f 84/89/84 85/119/85 94/98/94
f 84/89/84 94/98/94 89/92/89
f 96/175/96 95/167/95 88/159/88
f 91/166/91 96/175/96 88/159/88
f 88/159/88 79/157/79 91/166/91
f 99/100/99 98/99/98 75/86/75
f 75/86/75 92/96/92 99/100/99
f 92/133/92 91/38/91 100/139/100
f 100/139/100 99/137/99 92/133/92
f 79/157/79 97/176/97 100/177/100
f 100/177/100 91/166/91 79/157/79
f 104/200/104 105/201/105 103/224/103
f 116/186/116 95/167/95 96/175/96
f 96/175/96 117/187/117 116/186/116
f 96/175/96 101/178/101 118/188/118
f 118/188/118 117/187/117 96/175/96
f 101/160/101 102/161/102 119/205/119
f 119/205/119 118/204/118 101/160/101
f 102/179/102 95/167/95 116/186/116
f 116/186/116 119/189/119 102/179/102
f 84/126/84 110/162/110 111/163/111
f 111/163/111 85/153/85 84/126/84
f 109/216/109 106/227/106 30/132/30
f 30/132/30 112/217/112 109/216/109
f 114/225/114 115/194/115 113/165/113
f 106/155/106 109/156/109 111/163/111
f 111/163/111 110/162/110 106/155/106
f 109/195/109 112/149/112 114/145/114
f 114/145/114 113/145/113 109/195/109
f 114/149/114 112/145/112 111/146/111
f 111/146/111 115/150/115 114/149/114
f 111/197/111 109/145/109 113/149/113
f 113/149/113 115/150/115 111/197/111
f 117/187/117 104/181/104 103/180/103
f 103/180/103 116/186/116 117/187/117
f 117/187/117 118/188/118 104/181/104
f 118/204/118 119/205/119 105/203/105
f 105/203/105 104/202/104 118/204/118
f 116/186/116 103/180/103 105/182/105
f 105/182/105 119/189/119 116/186/116
f 122/110/122 123/111/123 124/141/124
f 124/141/124 125/164/125 122/110/122
f 120/121/120 121/122/121 124/171/124
f 124/171/124 123/170/123 120/121/120
f 121/83/121 63/84/63 125/169/125
f 125/169/125 124/168/124 121/83/121
# 234 faces

g
